<svg width="100" height="100" viewBox="0 0 100 100" fill="none" xmlns="http://www.w3.org/2000/svg">
<g clip-path="url(#clip0_19_81)">
<path d="M83.3333 29.1169V16.6669C83.3333 14.8235 81.8433 13.3335 80 13.3335C78.1567 13.3335 76.6667 14.8235 76.6667 16.6669V24.5569L59.3233 12.8502C53.66 9.03019 46.34 9.03019 40.6767 12.8502L17.3467 28.5969C12.7467 31.7002 10 36.8602 10 42.4135V73.3335C10 82.5235 17.4767 90.0002 26.6667 90.0002H73.3333C82.5233 90.0002 90 82.5235 90 73.3335V42.4135C90 37.1502 87.5067 32.2569 83.3333 29.1169ZM83.3333 73.3335C83.3333 78.8469 78.8467 83.3335 73.3333 83.3335H26.6667C21.1533 83.3335 16.6667 78.8469 16.6667 73.3335V42.4135C16.6667 39.0835 18.3133 35.9869 21.0733 34.1269L44.4067 18.3802C46.1067 17.2302 48.0533 16.6569 50 16.6569C51.9467 16.6569 53.8933 17.2302 55.5933 18.3802L78.93 34.1269C81.6867 35.9869 83.3333 39.0835 83.3333 42.4135V73.3335ZM57.3733 39.7435C54.3533 39.7435 51.76 40.6902 49.8733 42.3269C47.9833 40.6902 45.3933 39.7435 42.3733 39.7435C36.4 39.7435 31.54 44.9435 31.54 51.3302C31.54 58.6802 39.11 66.3002 45.4633 71.4002C46.74 72.4269 48.3067 72.9369 49.8733 72.9369C51.44 72.9369 53.0067 72.4269 54.2867 71.3969C60.6367 66.3002 68.21 58.6802 68.21 51.3269C68.21 44.9402 63.35 39.7402 57.3767 39.7402L57.3733 39.7435ZM50.1133 66.2002C49.9767 66.3102 49.77 66.3069 49.6333 66.2002C42.5833 60.5402 38.2067 54.8402 38.2067 51.3269C38.2067 48.6169 40.0767 46.4069 42.3733 46.4069C44.2733 46.4069 46.54 47.0302 46.54 49.9969C46.54 51.8402 48.0333 53.3302 49.8733 53.3302C51.7133 53.3302 53.2067 51.8402 53.2067 49.9969C53.2067 47.0269 55.4733 46.4069 57.3733 46.4069C59.67 46.4069 61.54 48.6135 61.54 51.3269C61.54 54.8402 57.1633 60.5402 50.1133 66.1969V66.2002Z" fill="black"/>
</g>
<defs>
<clipPath id="clip0_19_81">
<rect width="80" height="80" fill="white" transform="translate(10 10)"/>
</clipPath>
</defs>
</svg>
