<svg width="100" height="100" viewBox="0 0 100 100" fill="none" xmlns="http://www.w3.org/2000/svg">
<g clip-path="url(#clip0_19_100)">
<path d="M36.6667 18.3333C36.6667 13.73 40.3967 10 45 10C49.6033 10 53.3333 13.73 53.3333 18.3333C53.3333 22.9367 49.6033 26.6667 45 26.6667C40.3967 26.6667 36.6667 22.9367 36.6667 18.3333ZM10 43.3333V36.6667C10 35.4467 10.3533 34.3167 10.9267 33.3333C10.3533 32.35 10 31.22 10 30V23.3333C10 19.6567 12.99 16.6667 16.6667 16.6667H23.3333C27.01 16.6667 30 19.6567 30 23.3333V30C30 31.22 29.6467 32.35 29.0733 33.3333C29.6467 34.3167 30 35.4467 30 36.6667V43.3333C30 47.01 27.01 50 23.3333 50H16.6667C12.99 50 10 47.01 10 43.3333ZM23.3333 36.6667H16.6667V43.3333H23.3333V36.6667ZM16.6667 30H23.3333V23.3333H16.6667V30ZM90 78.3333C90 84.7667 84.7667 90 78.3333 90C73.6967 90 69.7167 87.26 67.8367 83.3333H50C48.1567 83.3333 46.6667 81.84 46.6667 80C46.6667 78.16 48.1567 76.6667 50 76.6667H53.3333V69.0833C53.3333 67.8267 52.6367 66.6867 51.5167 66.1133L42.09 61.3033C38.74 59.57 36.6667 56.1667 36.6667 52.4133V38.1567C36.6667 35.77 37.61 33.63 39.33 32.1267C41.4333 30.2867 44.8667 29.3867 47.9033 30.24L63.9733 36.67H69.49C73.26 36.67 76.57 39.2133 77.54 42.8567L82.2033 60.3467C82.8467 62.7667 83.0967 65.19 83.14 67.74C87.1733 69.58 89.9967 73.6267 89.9967 78.34L90 78.3333ZM45.1367 55.3733L46.6667 56.1533V36.9233L45.8633 36.6033C44.96 36.5533 44.16 36.7533 43.7167 37.1433C43.5233 37.31 43.3333 37.56 43.3333 38.1533V52.41C43.3333 53.66 44.0233 54.7967 45.1367 55.3733ZM60 69.0833V76.6667H66.8367C67.5667 71.6433 71.4733 67.6667 76.47 66.8567C76.38 65.2267 76.19 63.65 75.7667 62.06L71.1067 44.5733C70.91 43.8433 70.25 43.3367 69.4967 43.3367H63.3367C62.9133 43.3367 62.4933 43.2567 62.1 43.1L53.3367 39.5933V59.56L54.55 60.18C57.9133 61.8967 60.0033 65.31 60.0033 69.0867L60 69.0833ZM83.3333 78.3333C83.3333 75.5767 81.09 73.3333 78.3333 73.3333C75.5767 73.3333 73.3333 75.5767 73.3333 78.3333C73.3333 81.09 75.5767 83.3333 78.3333 83.3333C81.09 83.3333 83.3333 81.09 83.3333 78.3333ZM37.87 67.42C39.19 69.6533 40 72.2233 40 75C40 83.27 33.27 90 25 90C16.73 90 10 83.27 10 75C10 70.2633 12.25 66.0833 15.6867 63.3333H13.3333C11.49 63.3333 10 61.84 10 60C10 58.16 11.49 56.6667 13.3333 56.6667H25.5267C28.92 56.6667 32.0467 58.3633 33.9033 61.2033C33.9033 61.2033 37.8133 67.1867 37.87 67.42ZM33.3333 75C33.3333 73.3 32.8167 71.72 31.9367 70.4L31.88 70.31C30.3767 68.1133 27.8567 66.6667 25 66.6667C20.4033 66.6667 16.6667 70.4067 16.6667 75C16.6667 79.5933 20.4033 83.3333 25 83.3333C29.5967 83.3333 33.3333 79.5933 33.3333 75Z" fill="black"/>
</g>
<defs>
<clipPath id="clip0_19_100">
<rect width="80" height="80" fill="white" transform="translate(10 10)"/>
</clipPath>
</defs>
</svg>
