<svg width="100" height="100" viewBox="0 0 100 100" fill="none" xmlns="http://www.w3.org/2000/svg">
<g clip-path="url(#clip0_19_91)">
<path d="M82.4363 17.5638C79.0238 14.1513 73.4763 14.1513 70.0638 17.5638L50.5017 37.1258C48.2967 39.3279 47.0833 42.2592 47.0833 45.3742V50C47.0833 51.61 48.3871 52.9167 50 52.9167H54.6258C57.7408 52.9167 60.6721 51.7004 62.8742 49.4983L82.4363 29.9362C85.8313 26.6783 85.8313 20.8217 82.4363 17.5638ZM78.3121 25.8121L58.75 45.3742C57.6475 46.4767 56.1833 47.0833 54.6258 47.0833H52.9167V45.3742C52.9167 43.84 53.5408 42.335 54.6258 41.25L74.1879 21.6879C75.3283 20.5504 77.1717 20.5504 78.3121 21.6879C79.4438 22.7729 79.4438 24.7271 78.3121 25.8121ZM50 67.5C48.3871 67.5 47.0833 66.1963 47.0833 64.5833C47.0833 62.9704 48.3871 61.6667 50 61.6667H58.75C60.3629 61.6667 61.6667 62.9704 61.6667 64.5833C61.6667 66.1963 60.3629 67.5 58.75 67.5H50ZM73.3333 55.8333V70.4167C73.3333 78.4579 66.7913 85 58.75 85H29.5833C21.5421 85 15 78.4579 15 70.4167V29.5833C15 21.5421 21.5421 15 29.5833 15H55.8333C57.4463 15 58.75 16.3067 58.75 17.9167C58.75 19.5267 57.4463 20.8333 55.8333 20.8333H29.5833C24.7592 20.8333 20.8333 24.7592 20.8333 29.5833V70.4167C20.8333 75.2408 24.7592 79.1667 29.5833 79.1667H58.75C63.5742 79.1667 67.5 75.2408 67.5 70.4167V55.8333C67.5 54.2204 68.8038 52.9167 70.4167 52.9167C72.0296 52.9167 73.3333 54.2204 73.3333 55.8333ZM41.7371 49.0288L36.8167 53.9492C35.5596 55.2063 33.9146 55.8392 32.2638 55.8392C30.7092 55.8392 29.1546 55.2763 27.915 54.1417L25.9638 52.4529C24.7475 51.3971 24.6163 49.5538 25.6692 48.3375C26.7279 47.1154 28.5683 46.9929 29.7846 48.0429L31.7942 49.7871C32.0946 50.0583 32.4592 50.0554 32.6896 49.825L37.61 44.9046C38.7504 43.7642 40.5938 43.7642 41.7342 44.9046C42.8746 46.045 42.8775 47.8883 41.7371 49.0288ZM41.7371 34.5621L36.8167 39.4825C35.5596 40.7396 33.9146 41.3725 32.2638 41.3725C30.7092 41.3725 29.1546 40.8096 27.915 39.675L25.9638 37.9863C24.7475 36.9304 24.6163 35.0871 25.6692 33.8708C26.7279 32.6517 28.5683 32.5263 29.7846 33.5763L31.7942 35.3204C32.0946 35.5946 32.4592 35.5888 32.6896 35.3583L37.61 30.4379C38.7504 29.2975 40.5938 29.2975 41.7342 30.4379C42.8746 31.5783 42.8775 33.4217 41.7371 34.5621ZM41.7371 59.4879C42.8775 60.6283 42.8775 62.4717 41.7371 63.6121L36.8167 68.5325C35.5596 69.7896 33.9146 70.4225 32.2638 70.4225C30.7092 70.4225 29.1546 69.8596 27.915 68.725L25.9638 67.0363C24.7475 65.9804 24.6163 64.14 25.6692 62.9208C26.7279 61.7046 28.5683 61.5733 29.7846 62.6263L31.7942 64.3704C32.0946 64.6417 32.4592 64.6388 32.6896 64.4083L37.61 59.4879C38.7504 58.3475 40.5967 58.3475 41.7371 59.4879Z" fill="black"/>
</g>
<defs>
<clipPath id="clip0_19_91">
<rect width="70" height="70" fill="white" transform="translate(15 15)"/>
</clipPath>
</defs>
</svg>
