<svg width="100" height="100" viewBox="0 0 100 100" fill="none" xmlns="http://www.w3.org/2000/svg">
<g clip-path="url(#clip0_19_94)">
<path d="M36.6667 50C47.6967 50 56.6667 41.03 56.6667 30C56.6667 18.97 47.6967 10 36.6667 10C25.6367 10 16.6667 18.97 16.6667 30C16.6667 41.03 25.6367 50 36.6667 50ZM36.6667 16.6667C44.02 16.6667 50 22.6467 50 30C50 37.3533 44.02 43.3333 36.6667 43.3333C29.3133 43.3333 23.3333 37.3533 23.3333 30C23.3333 22.6467 29.3133 16.6667 36.6667 16.6667ZM43.3333 60C43.3333 61.84 41.84 63.3333 40 63.3333C27.1333 63.3333 16.6667 73.8 16.6667 86.6667C16.6667 88.5067 15.1733 90 13.3333 90C11.4933 90 10 88.5067 10 86.6667C10 70.1267 23.46 56.6667 40 56.6667C41.84 56.6667 43.3333 58.16 43.3333 60ZM88.8133 69.1733L80.9267 75.5967L84.19 85.53C84.6367 86.8733 84.1833 88.3533 83.06 89.2167C81.9367 90.08 80.39 90.14 79.2067 89.37L70.0267 83.3933L61 89.4333C60.44 89.81 59.7933 89.9967 59.1467 89.9967C58.4433 89.9967 57.74 89.7733 57.1467 89.33C56.0133 88.4833 55.5433 87.01 55.9667 85.66L59.1033 75.6067L51.18 69.16C50.1133 68.2567 49.7233 66.7833 50.2067 65.47C50.69 64.1567 51.9367 63.2867 53.3333 63.2867H63.3367L66.8767 53.3533C67.3633 52.05 68.61 51.1833 70 51.1833C71.39 51.1833 72.64 52.05 73.1233 53.3533L76.6633 63.2867H86.6667C88.0667 63.2867 89.3167 64.1633 89.7967 65.4767C90.2767 66.79 89.8833 68.2667 88.8133 69.17V69.1733Z" fill="black"/>
</g>
<defs>
<clipPath id="clip0_19_94">
<rect width="80" height="80" fill="white" transform="translate(10 10)"/>
</clipPath>
</defs>
</svg>
