<svg width="100" height="100" viewBox="0 0 100 100" fill="none" xmlns="http://www.w3.org/2000/svg">
<g clip-path="url(#clip0_19_88)">
<path d="M90 33.15C89.9057 27.9895 87.8078 23.0681 84.15 19.4267L75.69 10.9767C75.0613 10.3695 74.2193 10.0335 73.3453 10.0411C72.4713 10.0487 71.6353 10.3992 71.0173 11.0173C70.3992 11.6353 70.0487 12.4713 70.0411 13.3453C70.0335 14.2193 70.3695 15.0613 70.9767 15.69L76.6667 21.38V30C76.6667 31.7681 77.369 33.4638 78.6193 34.714C79.8695 35.9643 81.5652 36.6667 83.3333 36.6667V70C83.3333 70.8841 82.9821 71.7319 82.357 72.357C81.7319 72.9821 80.8841 73.3333 80 73.3333C79.1159 73.3333 78.2681 72.9821 77.643 72.357C77.0179 71.7319 76.6667 70.8841 76.6667 70V66.6667C76.6667 64.0145 75.6131 61.471 73.7377 59.5956C71.8624 57.7202 69.3188 56.6667 66.6667 56.6667H63.3333V26.6667C63.328 22.248 61.5704 18.0119 58.4459 14.8874C55.3215 11.7629 51.0853 10.0053 46.6667 10L26.6667 10C22.248 10.0053 18.0119 11.7629 14.8874 14.8874C11.7629 18.0119 10.0053 22.248 10 26.6667L10 73.3333C10.0053 77.752 11.7629 81.9881 14.8874 85.1126C18.0119 88.2371 22.248 89.9947 26.6667 90H46.6667C51.0853 89.9947 55.3215 88.2371 58.4459 85.1126C61.5704 81.9881 63.328 77.752 63.3333 73.3333V63.3333H66.6667C67.5507 63.3333 68.3986 63.6845 69.0237 64.3096C69.6488 64.9348 70 65.7826 70 66.6667V70C70 72.6522 71.0536 75.1957 72.9289 77.0711C74.8043 78.9464 77.3478 80 80 80C82.6522 80 85.1957 78.9464 87.0711 77.0711C88.9464 75.1957 90 72.6522 90 70C90 70 90 33.21 90 33.15ZM26.6667 16.6667H46.6667C49.3188 16.6667 51.8624 17.7202 53.7377 19.5956C55.6131 21.471 56.6667 24.0145 56.6667 26.6667V40H16.6667V26.6667C16.6667 24.0145 17.7202 21.471 19.5956 19.5956C21.471 17.7202 24.0145 16.6667 26.6667 16.6667ZM56.6667 73.3333C56.6667 75.9855 55.6131 78.529 53.7377 80.4044C51.8624 82.2798 49.3188 83.3333 46.6667 83.3333H26.6667C24.0145 83.3333 21.471 82.2798 19.5956 80.4044C17.7202 78.529 16.6667 75.9855 16.6667 73.3333V46.6667H56.6667V73.3333Z" fill="black"/>
</g>
<defs>
<clipPath id="clip0_19_88">
<rect width="80" height="80" fill="white" transform="translate(10 10)"/>
</clipPath>
</defs>
</svg>
