<svg width="100" height="100" viewBox="0 0 100 100" fill="none" xmlns="http://www.w3.org/2000/svg">
<g clip-path="url(#clip0_19_109)">
<path d="M30 60C31.8433 60 33.3333 61.4933 33.3333 63.3333V73.3333C33.3333 75.1733 31.8433 76.6667 30 76.6667C28.1567 76.6667 26.6667 75.1733 26.6667 73.3333V63.3333C26.6667 61.4933 28.1567 60 30 60ZM43.3333 46.6667C41.49 46.6667 40 48.16 40 50V73.3333C40 75.1733 41.49 76.6667 43.3333 76.6667C45.1767 76.6667 46.6667 75.1733 46.6667 73.3333V50C46.6667 48.16 45.1767 46.6667 43.3333 46.6667ZM90 82.7767C90 87.3667 84.53 90 75 90C65.47 90 60 87.3667 60 82.7767V58.3333C60 55.39 66.1667 53.3333 75 53.3333C83.8333 53.3333 90 55.39 90 58.3333V82.7767ZM75 63.3333C71.8133 63.3333 68.9933 63.0567 66.6667 62.5767V68.4733C67.4967 69.0233 69.9867 70 75 70C79.9333 70 82.4567 68.9667 83.3333 68.37V62.58C81.0067 63.06 78.1867 63.3333 75 63.3333ZM83.3333 82.0233V75.5633C81.1267 76.2333 78.4 76.6667 75 76.6667C71.53 76.6667 68.8333 76.2433 66.6667 75.5967V82.0233C67.6533 82.5567 70.38 83.3333 75 83.3333C79.62 83.3333 82.3467 82.5567 83.3333 82.0233ZM53.3333 43.3333C47.82 43.3333 43.3333 38.8467 43.3333 33.3333V16.8233C42.7933 16.77 42.2633 16.6667 41.7167 16.6667H26.6667C21.1533 16.6667 16.6667 21.1533 16.6667 26.6667V73.3333C16.6667 78.8467 21.1533 83.3333 26.6667 83.3333H50C51.8433 83.3333 53.3333 84.8267 53.3333 86.6667C53.3333 88.5067 51.8433 90 50 90H26.6667C17.4767 90 10 82.5233 10 73.3333V26.6667C10 17.4767 17.4767 10 26.6667 10H41.7167C47.9467 10 53.8067 12.4267 58.2167 16.8333L69.83 28.4533C73.74 32.36 76.1433 37.55 76.59 43.0633C76.74 44.8967 75.3733 46.5067 73.5367 46.6567C71.5833 46.8433 69.99 45.2633 69.8967 43.3333H53.33H53.3333ZM53.3333 36.6667H67.72C66.9933 35.4067 66.16 34.2067 65.1167 33.1667L53.5033 21.55C52.4533 20.5 51.2533 19.67 50 18.9467V33.3333C50 35.17 51.4933 36.6667 53.3333 36.6667Z" fill="black"/>
</g>
<defs>
<clipPath id="clip0_19_109">
<rect width="80" height="80" fill="white" transform="translate(10 10)"/>
</clipPath>
</defs>
</svg>
