<svg width="100" height="100" viewBox="0 0 100 100" fill="none" xmlns="http://www.w3.org/2000/svg">
<g clip-path="url(#clip0_19_106)">
<path d="M90 43.3336C90.0001 43.0903 89.9733 42.8477 89.92 42.6103L85.5867 23.0503C84.7816 19.3377 82.7245 16.0149 79.7604 13.6389C76.7963 11.2629 73.1054 9.97821 69.3067 10.0003H30.6933C26.8968 9.98128 23.2091 11.2674 20.2478 13.6431C17.2864 16.0188 15.2313 19.34 14.4267 23.0503L10.08 42.6103C10.0267 42.8477 9.99987 43.0903 10 43.3336V46.667C9.99732 49.9123 11.1831 53.0462 13.3333 55.477V73.3336C13.3386 77.7523 15.0963 81.9884 18.2207 85.1129C21.3452 88.2374 25.5814 89.995 30 90.0003H70C74.4187 89.995 78.6548 88.2374 81.7793 85.1129C84.9037 81.9884 86.6614 77.7523 86.6667 73.3336V55.477C88.8169 53.0462 90.0027 49.9123 90 46.667V43.3336ZM16.6667 43.697L20.9333 24.4969C21.4168 22.2711 22.6501 20.2789 24.4267 18.8535C26.2034 17.4282 28.4156 16.6563 30.6933 16.6669H33.3333V26.6669C33.3333 27.551 33.6845 28.3988 34.3097 29.024C34.9348 29.6491 35.7826 30.0003 36.6667 30.0003C37.5507 30.0003 38.3986 29.6491 39.0237 29.024C39.6488 28.3988 40 27.551 40 26.6669V16.6669H60V26.6669C60 27.551 60.3512 28.3988 60.9763 29.024C61.6014 29.6491 62.4493 30.0003 63.3333 30.0003C64.2174 30.0003 65.0652 29.6491 65.6904 29.024C66.3155 28.3988 66.6667 27.551 66.6667 26.6669V16.6669H69.3067C71.5844 16.6563 73.7966 17.4282 75.5733 18.8535C77.35 20.2789 78.5832 22.2711 79.0667 24.4969L83.3333 43.697V46.667C83.3333 48.4351 82.631 50.1308 81.3807 51.381C80.1305 52.6312 78.4348 53.3336 76.6667 53.3336H73.3333C71.5652 53.3336 69.8695 52.6312 68.6193 51.381C67.3691 50.1308 66.6667 48.4351 66.6667 46.667C66.6667 45.7829 66.3155 44.935 65.6904 44.3099C65.0652 43.6848 64.2174 43.3336 63.3333 43.3336C62.4493 43.3336 61.6014 43.6848 60.9763 44.3099C60.3512 44.935 60 45.7829 60 46.667C60 48.4351 59.2976 50.1308 58.0474 51.381C56.7971 52.6312 55.1014 53.3336 53.3333 53.3336H46.6667C44.8986 53.3336 43.2029 52.6312 41.9526 51.381C40.7024 50.1308 40 48.4351 40 46.667C40 45.7829 39.6488 44.935 39.0237 44.3099C38.3986 43.6848 37.5507 43.3336 36.6667 43.3336C35.7826 43.3336 34.9348 43.6848 34.3097 44.3099C33.6845 44.935 33.3333 45.7829 33.3333 46.667C33.3333 48.4351 32.631 50.1308 31.3807 51.381C30.1305 52.6312 28.4348 53.3336 26.6667 53.3336H23.3333C21.5652 53.3336 19.8695 52.6312 18.6193 51.381C17.3691 50.1308 16.6667 48.4351 16.6667 46.667V43.697ZM70 83.3336H30C27.3478 83.3336 24.8043 82.2801 22.9289 80.4047C21.0536 78.5293 20 75.9858 20 73.3336V59.577C21.0887 59.8588 22.2088 60.0011 23.3333 60.0003H26.6667C28.5594 60.0013 30.4305 59.5983 32.155 58.8182C33.8795 58.0382 35.4177 56.8991 36.6667 55.477C37.9157 56.8991 39.4538 58.0382 41.1783 58.8182C42.9028 59.5983 44.774 60.0013 46.6667 60.0003H53.3333C55.2261 60.0013 57.0972 59.5983 58.8217 58.8182C60.5462 58.0382 62.0843 56.8991 63.3333 55.477C64.5823 56.8991 66.1205 58.0382 67.845 58.8182C69.5695 59.5983 71.4406 60.0013 73.3333 60.0003H76.6667C77.7912 60.0011 78.9113 59.8588 80 59.577V73.3336C80 75.9858 78.9464 78.5293 77.0711 80.4047C75.1957 82.2801 72.6522 83.3336 70 83.3336Z" fill="black"/>
</g>
<defs>
<clipPath id="clip0_19_106">
<rect width="80" height="80" fill="white" transform="translate(10 10)"/>
</clipPath>
</defs>
</svg>
