<svg width="100" height="100" viewBox="0 0 100 100" fill="none" xmlns="http://www.w3.org/2000/svg">
<g clip-path="url(#clip0_19_103)">
<path d="M90 50C90 72.0567 72.0567 90 50 90C36.4833 90 24.0167 83.1367 16.68 72.1L16.6667 76.6667C16.6667 78.51 15.1733 80 13.3333 80C11.4933 80 10 78.51 10 76.6667V66.6967C10 63.0067 13.0033 60 16.6933 60H26.6667C28.5067 60 30 61.49 30 63.3333C30 65.1767 28.5067 66.6667 26.6667 66.6667H21.21C27.13 76.8667 38.05 83.3333 50 83.3333C68.38 83.3333 83.3333 68.38 83.3333 50C83.3333 48.1567 84.8233 46.6667 86.6667 46.6667C88.51 46.6667 90 48.1567 90 50ZM86.6667 20C84.8233 20 83.3333 21.49 83.3333 23.3333L83.32 27.85C76.0233 16.8 63.69 10 50 10C27.9433 10 10 27.9433 10 50C10 51.8433 11.4933 53.3333 13.3333 53.3333C15.1733 53.3333 16.6667 51.8433 16.6667 50C16.6667 31.62 31.62 16.6667 50 16.6667C62.1333 16.6667 73 23.07 78.8867 33.3333H73.3333C71.49 33.3333 70 34.8233 70 36.6667C70 38.51 71.49 40 73.3333 40H83.3333C87.0167 40 90 37.0167 90 33.3333V23.3333C90 21.49 88.51 20 86.6667 20ZM43.3333 66.6667C37.82 66.6667 33.3333 62.18 33.3333 56.6667V43.3333C33.3333 37.82 37.82 33.3333 43.3333 33.3333H56.6667C62.18 33.3333 66.6667 37.82 66.6667 43.3333V56.6667C66.6667 62.18 62.18 66.6667 56.6667 66.6667H43.3333ZM43.3333 60H56.6667C58.5067 60 60 58.5067 60 56.6667V43.3333C60 41.4933 58.5067 40 56.6667 40H43.3333C41.4967 40 40 41.4933 40 43.3333V56.6667C40 58.5067 41.4967 60 43.3333 60ZM48.3333 50H51.6667C53.51 50 55 48.51 55 46.6667C55 44.8233 53.51 43.3333 51.6667 43.3333H48.3333C46.4933 43.3333 45 44.8233 45 46.6667C45 48.51 46.4933 50 48.3333 50Z" fill="black"/>
</g>
<defs>
<clipPath id="clip0_19_103">
<rect width="80" height="80" fill="white" transform="translate(10 10)"/>
</clipPath>
</defs>
</svg>
