<svg width="100" height="100" viewBox="0 0 100 100" fill="none" xmlns="http://www.w3.org/2000/svg">
<g clip-path="url(#clip0_19_115)">
<path d="M13.3333 25.8333H22.4533C23.1688 28.4658 24.7306 30.7897 26.8978 32.4464C29.0649 34.1032 31.7171 35.0009 34.445 35.0009C37.1729 35.0009 39.8251 34.1032 41.9922 32.4464C44.1594 30.7897 45.7212 28.4658 46.4367 25.8333H86.6667C87.5507 25.8333 88.3986 25.4822 89.0237 24.857C89.6488 24.2319 90 23.3841 90 22.5C90 21.616 89.6488 20.7681 89.0237 20.143C88.3986 19.5179 87.5507 19.1667 86.6667 19.1667H46.4367C45.7212 16.5342 44.1594 14.2104 41.9922 12.5536C39.8251 10.8968 37.1729 9.99915 34.445 9.99915C31.7171 9.99915 29.0649 10.8968 26.8978 12.5536C24.7306 14.2104 23.1688 16.5342 22.4533 19.1667H13.3333C12.4493 19.1667 11.6014 19.5179 10.9763 20.143C10.3512 20.7681 10 21.616 10 22.5C10 23.3841 10.3512 24.2319 10.9763 24.857C11.6014 25.4822 12.4493 25.8333 13.3333 25.8333ZM34.4433 16.6667C35.5971 16.6667 36.7249 17.0088 37.6842 17.6498C38.6434 18.2907 39.3911 19.2018 39.8326 20.2677C40.2741 21.3336 40.3897 22.5065 40.1646 23.638C39.9395 24.7696 39.3839 25.809 38.5681 26.6248C37.7523 27.4406 36.7129 27.9962 35.5814 28.2213C34.4498 28.4463 33.2769 28.3308 32.211 27.8893C31.1451 27.4478 30.2341 26.7001 29.5931 25.7408C28.9521 24.7815 28.61 23.6537 28.61 22.5C28.6118 20.9535 29.2269 19.4707 30.3205 18.3772C31.4141 17.2836 32.8968 16.6684 34.4433 16.6667Z" fill="black"/>
<path d="M86.6667 46.6667H77.5467C76.8324 44.0336 75.2712 41.7089 73.1042 40.0514C70.9372 38.394 68.2849 37.4959 65.5567 37.4959C62.8285 37.4959 60.1761 38.394 58.0091 40.0514C55.8421 41.7089 54.2809 44.0336 53.5667 46.6667H13.3333C12.4493 46.6667 11.6014 47.0179 10.9763 47.643C10.3512 48.2681 10 49.116 10 50C10 50.8841 10.3512 51.7319 10.9763 52.357C11.6014 52.9822 12.4493 53.3334 13.3333 53.3334H53.5667C54.2809 55.9664 55.8421 58.2911 58.0091 59.9486C60.1761 61.6061 62.8285 62.5041 65.5567 62.5041C68.2849 62.5041 70.9372 61.6061 73.1042 59.9486C75.2712 58.2911 76.8324 55.9664 77.5467 53.3334H86.6667C87.5507 53.3334 88.3986 52.9822 89.0237 52.357C89.6488 51.7319 90 50.8841 90 50C90 49.116 89.6488 48.2681 89.0237 47.643C88.3986 47.0179 87.5507 46.6667 86.6667 46.6667ZM65.5567 55.8334C64.4029 55.8334 63.2751 55.4912 62.3158 54.8503C61.3566 54.2093 60.6089 53.2982 60.1674 52.2323C59.7259 51.1664 59.6103 49.9936 59.8354 48.862C60.0605 47.7304 60.6161 46.691 61.4319 45.8752C62.2477 45.0594 63.2871 44.5039 64.4186 44.2788C65.5502 44.0537 66.7231 44.1692 67.789 44.6107C68.8549 45.0522 69.7659 45.7999 70.4069 46.7592C71.0479 47.7185 71.39 48.8463 71.39 50C71.3882 51.5466 70.7731 53.0293 69.6795 54.1229C68.5859 55.2164 67.1032 55.8316 65.5567 55.8334Z" fill="black"/>
<path d="M86.6667 74.1667H46.4367C45.7212 71.5342 44.1594 69.2104 41.9922 67.5536C39.8251 65.8968 37.1729 64.9991 34.445 64.9991C31.7171 64.9991 29.0649 65.8968 26.8978 67.5536C24.7306 69.2104 23.1688 71.5342 22.4533 74.1667H13.3333C12.4493 74.1667 11.6014 74.5179 10.9763 75.143C10.3512 75.7681 10 76.616 10 77.5C10 78.3841 10.3512 79.2319 10.9763 79.857C11.6014 80.4822 12.4493 80.8333 13.3333 80.8333H22.4533C23.1688 83.4658 24.7306 85.7897 26.8978 87.4464C29.0649 89.1032 31.7171 90.0009 34.445 90.0009C37.1729 90.0009 39.8251 89.1032 41.9922 87.4464C44.1594 85.7897 45.7212 83.4658 46.4367 80.8333H86.6667C87.5507 80.8333 88.3986 80.4822 89.0237 79.857C89.6488 79.2319 90 78.3841 90 77.5C90 76.616 89.6488 75.7681 89.0237 75.143C88.3986 74.5179 87.5507 74.1667 86.6667 74.1667ZM34.4433 83.3333C33.2896 83.3333 32.1618 82.9912 31.2025 82.3503C30.2432 81.7093 29.4955 80.7982 29.054 79.7323C28.6125 78.6664 28.497 77.4935 28.7221 76.362C28.9472 75.2304 29.5027 74.191 30.3185 73.3752C31.1343 72.5594 32.1738 72.0038 33.3053 71.7788C34.4369 71.5537 35.6098 71.6692 36.6757 72.1107C37.7416 72.5522 38.6526 73.2999 39.2936 74.2592C39.9345 75.2185 40.2767 76.3463 40.2767 77.5C40.274 79.0463 39.6586 80.5285 38.5652 81.6219C37.4718 82.7153 35.9896 83.3307 34.4433 83.3333Z" fill="black"/>
</g>
<defs>
<clipPath id="clip0_19_115">
<rect width="80" height="80" fill="white" transform="translate(10 10)"/>
</clipPath>
</defs>
</svg>
