<svg width="100" height="100" viewBox="0 0 100 100" fill="none" xmlns="http://www.w3.org/2000/svg">
<g clip-path="url(#clip0_19_84)">
<path d="M50 50C53.9556 50 57.8224 48.827 61.1114 46.6294C64.4004 44.4318 66.9638 41.3082 68.4776 37.6537C69.9913 33.9991 70.3874 29.9778 69.6157 26.0982C68.844 22.2186 66.9392 18.6549 64.1421 15.8579C61.3451 13.0608 57.7814 11.156 53.9018 10.3843C50.0222 9.61259 46.0009 10.0087 42.3463 11.5224C38.6918 13.0362 35.5682 15.5996 33.3706 18.8886C31.173 22.1776 30 26.0444 30 30C30.0053 35.3027 32.1141 40.3867 35.8637 44.1363C39.6133 47.8859 44.6973 49.9947 50 50ZM50 16.6667C52.6371 16.6667 55.2149 17.4487 57.4076 18.9137C59.6003 20.3788 61.3092 22.4612 62.3184 24.8976C63.3276 27.3339 63.5916 30.0148 63.0771 32.6012C62.5627 35.1876 61.2928 37.5634 59.4281 39.4281C57.5634 41.2928 55.1876 42.5627 52.6012 43.0771C50.0148 43.5916 47.3339 43.3276 44.8976 42.3184C42.4612 41.3092 40.3788 39.6003 38.9137 37.4076C37.4487 35.2149 36.6667 32.6371 36.6667 30C36.6667 26.4638 38.0714 23.0724 40.5719 20.5719C43.0724 18.0714 46.4638 16.6667 50 16.6667Z" fill="black"/>
<path d="M50 56.6667C42.0462 56.6755 34.4207 59.839 28.7965 65.4632C23.1724 71.0874 20.0088 78.7129 20 86.6667C20 87.5507 20.3512 88.3986 20.9763 89.0237C21.6014 89.6488 22.4493 90 23.3333 90C24.2174 90 25.0652 89.6488 25.6904 89.0237C26.3155 88.3986 26.6667 87.5507 26.6667 86.6667C26.6667 80.4783 29.125 74.5434 33.5008 70.1675C37.8767 65.7917 43.8116 63.3333 50 63.3333C56.1884 63.3333 62.1233 65.7917 66.4992 70.1675C70.875 74.5434 73.3333 80.4783 73.3333 86.6667C73.3333 87.5507 73.6845 88.3986 74.3096 89.0237C74.9348 89.6488 75.7826 90 76.6667 90C77.5507 90 78.3986 89.6488 79.0237 89.0237C79.6488 88.3986 80 87.5507 80 86.6667C79.9912 78.7129 76.8276 71.0874 71.2035 65.4632C65.5793 59.839 57.9538 56.6755 50 56.6667Z" fill="black"/>
</g>
<defs>
<clipPath id="clip0_19_84">
<rect width="80" height="80" fill="white" transform="translate(10 10)"/>
</clipPath>
</defs>
</svg>
