<svg width="100" height="100" viewBox="0 0 100 100" fill="none" xmlns="http://www.w3.org/2000/svg">
<g clip-path="url(#clip0_19_97)">
<path d="M81.5333 23.78C80.8594 19.9175 78.8433 16.417 75.8404 13.8959C72.8375 11.3748 69.0409 9.99508 65.12 10H34.8367C30.9127 9.99405 27.1129 11.375 24.1084 13.8989C21.1039 16.4228 19.0879 19.9273 18.4167 23.7934L10.2533 70.46C9.83412 72.8552 9.9441 75.3132 10.5755 77.6614C11.207 80.0096 12.3446 82.1912 13.9086 84.0531C15.4726 85.915 17.4251 87.4122 19.629 88.4395C21.833 89.4668 24.235 89.9995 26.6667 90H73.3333C75.7666 90.0003 78.1704 89.4678 80.3759 88.4399C82.5813 87.412 84.535 85.9136 86.0996 84.0501C87.6642 82.1866 88.8018 80.0031 89.4324 77.653C90.063 75.3029 90.1714 72.8432 89.75 70.4467L81.5333 23.78ZM81 79.7634C80.0605 80.8824 78.8872 81.7819 77.5626 82.3987C76.2381 83.0155 74.7945 83.3345 73.3333 83.3334H26.6667C25.2073 83.3334 23.7655 83.014 22.4427 82.3975C21.1198 81.7811 19.948 80.8826 19.0093 79.7651C18.0706 78.6476 17.3879 77.3382 17.0092 75.9288C16.6304 74.5194 16.5647 73.0442 16.8167 71.6067L24.98 24.94C25.3864 22.6215 26.5978 20.5206 28.4007 19.0072C30.2037 17.4939 32.4828 16.6651 34.8367 16.6667H65.12C67.4712 16.6671 69.7471 17.4961 71.5479 19.0079C73.3487 20.5197 74.5591 22.6177 74.9667 24.9334L83.1767 71.6C83.4316 73.0371 83.3688 74.5126 82.9928 75.9228C82.6167 77.3331 81.9366 78.6439 81 79.7634ZM53.3333 26.6667V33.3334C53.3333 34.2174 52.9821 35.0653 52.357 35.6904C51.7319 36.3155 50.8841 36.6667 50 36.6667C49.1159 36.6667 48.2681 36.3155 47.643 35.6904C47.0179 35.0653 46.6667 34.2174 46.6667 33.3334V26.6667C46.6667 25.7826 47.0179 24.9348 47.643 24.3097C48.2681 23.6845 49.1159 23.3334 50 23.3334C50.8841 23.3334 51.7319 23.6845 52.357 24.3097C52.9821 24.9348 53.3333 25.7826 53.3333 26.6667ZM53.3333 46.6667V53.3334C53.3333 54.2174 52.9821 55.0653 52.357 55.6904C51.7319 56.3155 50.8841 56.6667 50 56.6667C49.1159 56.6667 48.2681 56.3155 47.643 55.6904C47.0179 55.0653 46.6667 54.2174 46.6667 53.3334V46.6667C46.6667 45.7826 47.0179 44.9348 47.643 44.3097C48.2681 43.6845 49.1159 43.3334 50 43.3334C50.8841 43.3334 51.7319 43.6845 52.357 44.3097C52.9821 44.9348 53.3333 45.7826 53.3333 46.6667ZM53.3333 66.6667V73.3334C53.3333 74.2174 52.9821 75.0653 52.357 75.6904C51.7319 76.3155 50.8841 76.6667 50 76.6667C49.1159 76.6667 48.2681 76.3155 47.643 75.6904C47.0179 75.0653 46.6667 74.2174 46.6667 73.3334V66.6667C46.6667 65.7826 47.0179 64.9348 47.643 64.3097C48.2681 63.6845 49.1159 63.3334 50 63.3334C50.8841 63.3334 51.7319 63.6845 52.357 64.3097C52.9821 64.9348 53.3333 65.7826 53.3333 66.6667Z" fill="black"/>
</g>
<defs>
<clipPath id="clip0_19_97">
<rect width="80" height="80" fill="white" transform="translate(10 10)"/>
</clipPath>
</defs>
</svg>
