<svg width="100" height="100" viewBox="0 0 100 100" fill="none" xmlns="http://www.w3.org/2000/svg">
<g clip-path="url(#clip0_19_112)">
<path d="M60 30C60 18.97 51.03 10 40 10C28.97 10 20 18.97 20 30C20 41.03 28.97 50 40 50C51.03 50 60 41.03 60 30ZM40 43.3333C32.6467 43.3333 26.6667 37.3533 26.6667 30C26.6667 22.6467 32.6467 16.6667 40 16.6667C47.3534 16.6667 53.3334 22.6467 53.3334 30C53.3334 37.3533 47.3534 43.3333 40 43.3333ZM39.9734 59.7933C40.2 61.62 38.9067 63.2833 37.0767 63.5133C25.44 64.9667 16.6634 74.9167 16.6634 86.6667C16.6634 88.5067 15.17 90 13.33 90C11.49 90 9.9967 88.5067 9.9967 86.6667C9.9967 71.5633 21.2834 58.7667 36.25 56.9C38.0567 56.67 39.74 57.9667 39.97 59.7967L39.9734 59.7933ZM85.6534 73.7767L82.4067 71.9033C82.96 70.2467 83.3334 68.5067 83.3334 66.6633C83.3334 64.82 82.9634 63.08 82.4067 61.4233L85.6534 59.55C87.2467 58.63 87.7934 56.59 86.8734 54.9967C85.95 53.4 83.9167 52.85 82.32 53.7767L79.0767 55.65C76.7267 53.0033 73.5967 51.0667 70 50.3367V46.6667C70 44.8267 68.5067 43.3333 66.6667 43.3333C64.8267 43.3333 63.3334 44.8267 63.3334 46.6667V50.3367C59.7367 51.07 56.6067 53.0067 54.2567 55.65L51.0134 53.7767C49.4134 52.8533 47.38 53.4 46.46 54.9967C45.54 56.5933 46.0867 58.63 47.68 59.55L50.9267 61.4233C50.3734 63.08 50 64.82 50 66.6633C50 68.5067 50.37 70.2467 50.9267 71.9033L47.68 73.7767C46.0867 74.6967 45.54 76.7367 46.46 78.33C47.08 79.4 48.1967 79.9967 49.35 79.9967C49.9134 79.9967 50.4867 79.8533 51.0134 79.55L54.2567 77.6767C56.6067 80.3233 59.7367 82.26 63.3334 82.99V86.66C63.3334 88.5 64.8267 89.9933 66.6667 89.9933C68.5067 89.9933 70 88.5 70 86.66V82.99C73.5967 82.2567 76.7267 80.32 79.0767 77.6767L82.32 79.55C82.8467 79.8533 83.42 79.9967 83.9834 79.9967C85.1367 79.9967 86.2567 79.4 86.8734 78.33C87.7934 76.7333 87.2467 74.6967 85.6534 73.7767ZM66.6667 76.6633C61.1534 76.6633 56.6667 72.1767 56.6667 66.6633C56.6667 61.15 61.1534 56.6633 66.6667 56.6633C72.18 56.6633 76.6667 61.15 76.6667 66.6633C76.6667 72.1767 72.18 76.6633 66.6667 76.6633Z" fill="black"/>
</g>
<defs>
<clipPath id="clip0_19_112">
<rect width="80" height="80" fill="white" transform="translate(10 10)"/>
</clipPath>
</defs>
</svg>
