<svg width="100" height="100" viewBox="0 0 100 100" fill="none" xmlns="http://www.w3.org/2000/svg">
<path d="M73.3333 26.6666H66.6667V23.3333C66.6667 20.6811 65.6131 18.1376 63.7377 16.2622C61.8624 14.3869 59.3188 13.3333 56.6667 13.3333H20C17.3478 13.3333 14.8043 14.3869 12.9289 16.2622C11.0536 18.1376 10 20.6811 10 23.3333L10 73.3333H16.8033C16.7176 73.8848 16.6719 74.4419 16.6667 75C16.6667 78.0942 17.8958 81.0616 20.0838 83.2496C22.2717 85.4375 25.2391 86.6666 28.3333 86.6666C31.4275 86.6666 34.395 85.4375 36.5829 83.2496C38.7708 81.0616 40 78.0942 40 75C39.9948 74.4419 39.9491 73.8848 39.8633 73.3333H60.1367C60.0509 73.8848 60.0052 74.4419 60 75C60 78.0942 61.2292 81.0616 63.4171 83.2496C65.605 85.4375 68.5725 86.6666 71.6667 86.6666C74.7609 86.6666 77.7283 85.4375 79.9162 83.2496C82.1042 81.0616 83.3333 78.0942 83.3333 75C83.3281 74.4419 83.2824 73.8848 83.1967 73.3333H90V43.3333C89.9947 38.9147 88.2371 34.6785 85.1126 31.554C81.9881 28.4296 77.752 26.6719 73.3333 26.6666ZM73.3333 33.3333C75.9855 33.3333 78.529 34.3869 80.4044 36.2622C82.2798 38.1376 83.3333 40.6811 83.3333 43.3333V46.6666H66.6667V33.3333H73.3333ZM33.3333 75C33.3333 76.3261 32.8065 77.5978 31.8689 78.5355C30.9312 79.4732 29.6594 80 28.3333 80C27.0073 80 25.7355 79.4732 24.7978 78.5355C23.8601 77.5978 23.3333 76.3261 23.3333 75C23.3354 74.4303 23.4404 73.8656 23.6433 73.3333H33.0233C33.2263 73.8656 33.3313 74.4303 33.3333 75ZM60 66.6666H16.6667V23.3333C16.6667 22.4493 17.0179 21.6014 17.643 20.9763C18.2681 20.3512 19.1159 20 20 20H56.6667C57.5507 20 58.3986 20.3512 59.0237 20.9763C59.6488 21.6014 60 22.4493 60 23.3333V66.6666ZM76.6667 75C76.6667 76.3261 76.1399 77.5978 75.2022 78.5355C74.2645 79.4732 72.9927 80 71.6667 80C70.3406 80 69.0688 79.4732 68.1311 78.5355C67.1935 77.5978 66.6667 76.3261 66.6667 75C66.6681 74.4302 66.7732 73.8655 66.9767 73.3333H76.3567C76.5602 73.8655 76.6652 74.4302 76.6667 75ZM66.6667 66.6666V53.3333H83.3333V66.6666H66.6667Z" fill="black"/>
</svg>
